<svg width="24" height="24" viewBox="0 0 24 24" fill="none" xmlns="http://www.w3.org/2000/svg">
<g id="Graph" clip-path="url(#clip0_52_3179)">
<path id="icon" fill-rule="evenodd" clip-rule="evenodd" d="M2.69857 1.53999C2.69857 0.829907 2.12293 0.254272 1.41285 0.254272C0.70277 0.254272 0.127136 0.829907 0.127136 1.53999V22.4599C0.127136 23.1701 0.70277 23.7456 1.41285 23.7456H22.3329C23.0429 23.7456 23.6186 23.1701 23.6186 22.4599C23.6186 21.7498 23.0429 21.1742 22.3329 21.1742H2.69857V1.53999ZM17.5226 4.16789C17.1448 3.89806 16.6738 3.79298 16.2171 3.87667C15.7605 3.96036 15.3573 4.22568 15.0998 4.61194L9.82283 12.5274L7.27839 9.98299C6.60891 9.31351 5.52349 9.31351 4.85401 9.98299C4.18455 10.6525 4.18455 11.7379 4.85401 12.4073L8.87709 16.4304C9.24025 16.7936 9.7471 16.9748 10.2582 16.9242C10.7693 16.8736 11.2308 16.5965 11.5156 16.1692L16.9705 7.98691L21.162 10.9809C21.9326 11.5312 23.0032 11.3528 23.5534 10.5824C24.1037 9.81192 23.9253 8.74126 23.1549 8.19096L17.5226 4.16789Z" fill="#F5F5F5"/>
</g>
<defs>
<clipPath id="clip0_52_3179">
<rect width="24" height="24" fill="white"/>
</clipPath>
</defs>
</svg>
