<svg width="24" height="24" viewBox="0 0 24 24" fill="none" xmlns="http://www.w3.org/2000/svg">
<g id="Message">
<path id="Icon" d="M11.687 17.1913V16.1913C11.4218 16.1913 11.1674 16.2966 10.9799 16.4842L11.687 17.1913ZM6.67828 22.2H5.67828C5.67828 22.6045 5.92193 22.9691 6.2956 23.1239C6.66928 23.2786 7.09939 23.1931 7.38539 22.9071L6.67828 22.2ZM6.67828 17.1913H7.67828C7.67828 16.639 7.23057 16.1913 6.67828 16.1913V17.1913ZM10.8 3.99999C11.3523 3.99999 11.8 3.55227 11.8 2.99999C11.8 2.4477 11.3523 1.99999 10.8 1.99999V3.99999ZM22.6 12C22.6 11.4477 22.1523 11 21.6 11C21.0477 11 20.6 11.4477 20.6 12H22.6ZM10.9799 16.4842L5.97118 21.4929L7.38539 22.9071L12.3941 17.8984L10.9799 16.4842ZM7.67828 22.2V17.1913H5.67828V22.2H7.67828ZM6.67828 16.1913H4.80002V18.1913H6.67828V16.1913ZM3.40002 14.7913V5.39999H1.40002V14.7913H3.40002ZM19.2 16.1913H11.687V18.1913H19.2V16.1913ZM4.80002 3.99999H10.8V1.99999H4.80002V3.99999ZM20.6 12V14.7913H22.6V12H20.6ZM19.2 18.1913C21.0778 18.1913 22.6 16.6691 22.6 14.7913H20.6C20.6 15.5645 19.9732 16.1913 19.2 16.1913V18.1913ZM3.40002 5.39999C3.40002 4.62679 4.02683 3.99999 4.80002 3.99999V1.99999C2.92226 1.99999 1.40002 3.52222 1.40002 5.39999H3.40002ZM4.80002 16.1913C4.02683 16.1913 3.40002 15.5645 3.40002 14.7913H1.40002C1.40002 16.6691 2.92226 18.1913 4.80002 18.1913V16.1913ZM20.6 5.39999C20.6 6.83593 19.436 7.99999 18 7.99999V9.99999C20.5405 9.99999 22.6 7.9405 22.6 5.39999H20.6ZM18 7.99999C16.5641 7.99999 15.4 6.83593 15.4 5.39999H13.4C13.4 7.9405 15.4595 9.99999 18 9.99999V7.99999ZM15.4 5.39999C15.4 3.96405 16.5641 2.79999 18 2.79999V0.799988C15.4595 0.799988 13.4 2.85948 13.4 5.39999H15.4ZM18 2.79999C19.436 2.79999 20.6 3.96405 20.6 5.39999H22.6C22.6 2.85948 20.5405 0.799988 18 0.799988V2.79999Z" fill="#F5F5F5"/>
</g>
</svg>
